<svg width="52" height="52" viewBox="0 0 52 52" fill="none" xmlns="http://www.w3.org/2000/svg">
  <circle cx="20" cy="24" r="14" stroke="#FF5A3C" stroke-width="3"></circle>
  <path d="M6 24H34" stroke="#FF5A3C" stroke-width="3" stroke-linecap="round"></path>
  <path d="M20 10C23.5 13.8 25.5 18.6 25.5 24C25.5 29.4 23.5 34.2 20 38" stroke="#FF5A3C" stroke-width="3" stroke-linecap="round"></path>
  <path d="M20 10C16.5 13.8 14.5 18.6 14.5 24C14.5 29.4 16.5 34.2 20 38" stroke="#FF5A3C" stroke-width="3" stroke-linecap="round"></path>
  <path d="M9 16.5H31" stroke="#FF5A3C" stroke-width="3" stroke-linecap="round" opacity="0.9"></path>
  <path d="M9 31.5H28" stroke="#FF5A3C" stroke-width="3" stroke-linecap="round" opacity="0.9"></path>
  <path d="M39 33.5C39 37.7 34 42.5 34 42.5C34 42.5 29 37.7 29 33.5C29 30.4624 31.4624 28 34.5 28C37.5376 28 40 30.4624 40 33.5H39Z" fill="#FF5A3C"></path>
  <circle cx="34.5" cy="33.5" r="1.8" fill="white"></circle>
</svg>