<svg width="72" height="72" viewBox="0 0 72 72" fill="none" xmlns="http://www.w3.org/2000/svg">
  <circle cx="36" cy="36" r="26" fill="#FDE8E4"></circle>
  <circle cx="36" cy="29" r="6" fill="#FF5A3C"></circle>
  <path d="M28 47.5C28 42.8056 31.8056 39 36.5 39H37.5C42.1944 39 46 42.8056 46 47.5V50H28V47.5Z" fill="#FF5A3C"></path>
  <path d="M47.2 37.8C49.2987 37.8 50.7 38.982 50.7 40.542C50.7 42.228 49.2536 43.0598 47.8425 43.5207C46.6367 43.908 45.9 44.2477 45.9 44.95C45.9 45.6523 46.5137 46.15 47.494 46.15C48.4369 46.15 49.0311 45.7735 49.4903 45.2808L50.8 46.61C49.9982 47.4631 48.9107 47.9997 47.7 48.11V49.6H46.1V48.07C44.1176 47.7993 42.8 46.5709 42.8 44.95C42.8 43.1715 44.2686 42.3297 45.963 41.7785C47.0464 41.426 47.6 41.1769 47.6 40.6C47.6 40.1063 47.1546 39.78 46.4 39.78C45.5307 39.78 44.8844 40.1344 44.3825 40.6875L43.1 39.386C43.913 38.474 44.9798 37.9148 46.1 37.81V36.4H47.7V37.8H47.2Z" fill="#FF5A3C"></path>
</svg>