<svg width="32" height="32" viewBox="0 0 32 32" fill="none" xmlns="http://www.w3.org/2000/svg">
  <path d="M8 12H27L25.5 20C25.32 20.93 24.5 21.6 23.55 21.6H10.4C9.4 21.6 8.55 20.86 8.42 19.86L7.2 10.8C7.06 9.77 7.86 8.85 8.9 8.85H10.5" stroke="#FF5A3C" stroke-width="2.3" stroke-linecap="round" stroke-linejoin="round"></path>
  <path d="M12 8V6.5C12 5.67 12.67 5 13.5 5C14.33 5 15 5.67 15 6.5V12" stroke="#FF5A3C" stroke-width="2.3" stroke-linecap="round"></path>
  <path d="M10 25C11.2 24.1 12.8 24.1 14 25C15.2 25.9 16.8 25.9 18 25C19.2 24.1 20.8 24.1 22 25" stroke="#FF5A3C" stroke-width="2.3" stroke-linecap="round"></path>
</svg>