<svg width="32" height="32" viewBox="0 0 32 32" fill="none" xmlns="http://www.w3.org/2000/svg">
  <circle cx="13" cy="9" r="4" fill="#FF5A3C"></circle>
  <path d="M6 24C6 19.58 9.58 16 14 16H15C19.42 16 23 19.58 23 24V26H6V24Z" fill="#FF5A3C"></path>
  <circle cx="23" cy="20" r="6" stroke="#FF5A3C" stroke-width="2"></circle>
  <path d="M23 16.8V23.2" stroke="#FF5A3C" stroke-width="1.5" stroke-linecap="round"></path>
  <path d="M25.1 18.2C24.75 17.55 24.05 17.15 23.2 17.15C22.25 17.15 21.55 17.65 21.55 18.35C21.55 19.9 25 19.15 25 21.05C25 21.85 24.2 22.4 23.15 22.4C22.3 22.4 21.55 22.05 21.15 21.45" stroke="#FF5A3C" stroke-width="1.3" stroke-linecap="round"></path>
</svg>